<?xml version="1.0" encoding="UTF-8" standalone="no"?>
<!-- Generator: Adobe Illustrator 16.0.0, SVG Export Plug-In . SVG Version: 6.00 Build 0)  -->

<svg
   xmlns:dc="http://purl.org/dc/elements/1.1/"
   xmlns:cc="http://creativecommons.org/ns#"
   xmlns:rdf="http://www.w3.org/1999/02/22-rdf-syntax-ns#"
   xmlns:svg="http://www.w3.org/2000/svg"
   xmlns="http://www.w3.org/2000/svg"
   xmlns:sodipodi="http://sodipodi.sourceforge.net/DTD/sodipodi-0.dtd"
   xmlns:inkscape="http://www.inkscape.org/namespaces/inkscape"
   version="1.1"
   id="Capa_1"
   x="0px"
   y="0px"
   width="32"
   height="32"
   viewBox="0 0 31.999999 32"
   xml:space="preserve"
   sodipodi:docname="calendar-clock.svg"
   inkscape:version="0.92.0 r15299"
   shape-rendering="crispEdges"><metadata
   id="metadata3782"><rdf:RDF><cc:Work
       rdf:about=""><dc:format>image/svg+xml</dc:format><dc:type
         rdf:resource="http://purl.org/dc/dcmitype/StillImage" /><dc:title></dc:title></cc:Work></rdf:RDF></metadata><defs
   id="defs3780" /><sodipodi:namedview
   pagecolor="#ffffff"
   bordercolor="#666666"
   borderopacity="0.45882353"
   objecttolerance="10"
   gridtolerance="10"
   guidetolerance="10"
   inkscape:pageopacity="0"
   inkscape:pageshadow="2"
   inkscape:window-width="1112"
   inkscape:window-height="769"
   id="namedview3778"
   showgrid="false"
   inkscape:zoom="8.6875"
   inkscape:cx="3.6824532"
   inkscape:cy="20.662872"
   inkscape:window-x="0"
   inkscape:window-y="0"
   inkscape:window-maximized="0"
   inkscape:current-layer="Capa_1"
   units="px"
   fit-margin-top="0"
   fit-margin-left="0"
   fit-margin-right="0"
   fit-margin-bottom="0"
   inkscape:showpageshadow="false" />
<g
   id="g3745"
   transform="matrix(0.06595069,0,0,0.06595042,-6.595069e-5,0)">
	<path
   d="M 60.652,75.816 V 15.163 C 60.652,6.781 67.433,0 75.817,0 c 8.38,0 15.161,6.781 15.161,15.163 v 60.653 c 0,8.38 -6.781,15.161 -15.161,15.161 -8.384,10e-4 -15.165,-6.781 -15.165,-15.161 z m 257.772,15.162 c 8.378,0 15.163,-6.781 15.163,-15.161 V 15.163 C 333.587,6.781 326.802,0 318.424,0 310.042,0 303.256,6.781 303.256,15.163 v 60.653 c 0,8.38 6.786,15.162 15.168,15.162 z m 166.788,272.928 c 0,66.996 -54.312,121.307 -121.303,121.307 -66.986,0 -121.302,-54.311 -121.302,-121.307 0,-66.986 54.315,-121.3 121.302,-121.3 66.991,0 121.303,54.313 121.303,121.3 z m -30.322,0 c 0,-50.161 -40.81,-90.976 -90.98,-90.976 -50.166,0 -90.976,40.814 -90.976,90.976 0,50.171 40.81,90.98 90.976,90.98 50.17,0 90.98,-40.809 90.98,-90.98 z M 121.305,181.955 H 60.652 v 60.651 h 60.653 z M 60.652,333.584 h 60.653 V 272.93 H 60.652 Z m 90.977,-90.978 h 60.654 v -60.651 h -60.654 z m 0,90.978 h 60.654 V 272.93 H 151.629 Z M 30.328,360.891 V 151.628 H 363.91 v 60.653 h 30.327 V 94 c 0,-18.421 -14.692,-33.349 -32.843,-33.349 h -12.647 v 15.166 c 0,16.701 -13.596,30.325 -30.322,30.325 -16.731,0 -30.326,-13.624 -30.326,-30.325 V 60.651 H 106.14 v 15.166 c 0,16.701 -13.593,30.325 -30.322,30.325 -16.733,0 -30.327,-13.624 -30.327,-30.325 V 60.651 H 32.859 C 14.707,60.651 0.001,75.579 0.001,94 v 266.892 c 0,18.36 14.706,33.346 32.858,33.346 H 212.283 V 363.907 H 32.859 c -1.374,-10e-4 -2.531,-1.42 -2.531,-3.016 z M 303.256,242.606 v -60.651 h -60.648 v 60.651 z m 106.143,121.3 h -45.49 v -45.49 c 0,-8.377 -6.781,-15.158 -15.163,-15.158 -8.382,0 -15.159,6.781 -15.159,15.158 v 60.658 c 0,8.378 6.777,15.163 15.159,15.163 h 60.653 c 8.382,0 15.163,-6.785 15.163,-15.163 0,-8.382 -6.781,-15.168 -15.163,-15.168 z"
   id="path3743"
   inkscape:connector-curvature="0" />
</g>
<g
   id="g3747"
   transform="translate(-0.001,-453.21301)">
</g>
<g
   id="g3749"
   transform="translate(-0.001,-453.21301)">
</g>
<g
   id="g3751"
   transform="translate(-0.001,-453.21301)">
</g>
<g
   id="g3753"
   transform="translate(-0.001,-453.21301)">
</g>
<g
   id="g3755"
   transform="translate(-0.001,-453.21301)">
</g>
<g
   id="g3757"
   transform="translate(-0.001,-453.21301)">
</g>
<g
   id="g3759"
   transform="translate(-0.001,-453.21301)">
</g>
<g
   id="g3761"
   transform="translate(-0.001,-453.21301)">
</g>
<g
   id="g3763"
   transform="translate(-0.001,-453.21301)">
</g>
<g
   id="g3765"
   transform="translate(-0.001,-453.21301)">
</g>
<g
   id="g3767"
   transform="translate(-0.001,-453.21301)">
</g>
<g
   id="g3769"
   transform="translate(-0.001,-453.21301)">
</g>
<g
   id="g3771"
   transform="translate(-0.001,-453.21301)">
</g>
<g
   id="g3773"
   transform="translate(-0.001,-453.21301)">
</g>
<g
   id="g3775"
   transform="translate(-0.001,-453.21301)">
</g>
</svg>